<?xml version="1.0" encoding="UTF-8"?>
<svg width="50mm" height="50mm" version="1.1" viewBox="0 0 50 50" xmlns="http://www.w3.org/2000/svg" xmlns:cc="http://creativecommons.org/ns#" xmlns:dc="http://purl.org/dc/elements/1.1/" xmlns:rdf="http://www.w3.org/1999/02/22-rdf-syntax-ns#">
 <metadata>
  <rdf:RDF>
   <cc:Work rdf:about="">
    <dc:format>image/svg+xml</dc:format>
    <dc:type rdf:resource="http://purl.org/dc/dcmitype/StillImage"/>
    <dc:title/>
   </cc:Work>
  </rdf:RDF>
 </metadata>
 <g transform="translate(-3.5742 -7.1719)">
  <path transform="matrix(.26458 0 0 .26458 3.5742 7.1719)" d="m94.488 0a94.488 94.488 0 0 0-94.488 94.488 94.488 94.488 0 0 0 94.488 94.488 94.488 94.488 0 0 0 94.488-94.488 94.488 94.488 0 0 0-94.488-94.488zm32.592 53.459c1.3394-0.019105 2.6425 0.1743 4.1328 1.4453 2.6968 1.4709 3.076 5.5265 2.4785 6.9941 0.86383 0.76402 0.53409 1.75-0.10743 2.7793 2.2536 2.3868 3.4914 5.2288 2.5879 5.9883 2.9418 1.9969 3.271 3.5786 8.1328 7.959 0.84051 1.5251 0.32842 5.4005 2.7422 16.045-0.61252 4.0966 0.45652 7.7212 0.39843 12.15-0.81729 2.8652-0.7599 3.5957-0.27734 3.7793 0.82302 0.31314 7.5093 4.4216 8.873 6.2461 1.6097 0.84279 4.0854 2.7711 4.6055 3.8965-0.78635 1.2342-1.4606 0.68585-3.209 2.125-3.4116 0.37979-7.1788 5.0363-9.793 2.582-8.1491 2.3353 2.4715-0.04307 6.1055 5.5117-0.53029-0.08852-3.439-1.8556-4.9219-1.4648 0.21056 1.2381 0.96049 2.3421 0.23829 2.8887-0.72221 0.54655-2.4152 0.28622-3.5762 0.29492-1.161 0.00866-0.7885 1.2896-1.8945 0.91406-1.106-0.37554-2.6878-2.6596-3.6211-2.5137-2.1667 2.5934-1.8416 1.5327-5.3867 0.84375 0 0-1.3386 1.5904-1.373 4.3516-0.94311 4.2342 1.3319 7.3114 2.6797 11.182 0.5864 5.0644 1.6974 10.059 2.2227 15.156 1.0671 1.6859 2.6298 4.7441 2.3926 5.1133-2.0513 3.1922-1.011 1.4474-3.4727 3.3086-1.9218 1.5889-11.984 3.1162-7.877-1.0606 1.4286-0.93691 2.6733-3.3236 3.2559-4.2188 2.5698-1.8647-0.21883-5.2187-1.1113-7.7363-1.1672-2.6456-0.53029-3.3873-1.5938-2.918-2.9796 4.5645-2.15 9.1691-3.584 8.5391-0.49188-0.32491-2.0798 5.8773-1.8398 7.9961 0.49247 4.1942-1.9836 3.358-5.2324 4.4902-4.7178 0.46156-9.4298 1.4878-14.082 2.0137-5.1193 1.269-10.665 0.50941-15.957 0.5918-1.3803-0.21054-8.8707-0.18394-5.5625-2.9746 4.6978 1.2435 9.3002-2.2443 14.041-0.23242 2.7245-0.57774 3.6237-1.733 7.0898-0.74609 2.0967-0.53849 5.5196-0.58258 6.7969-1.5312l2.2812-0.13282c0.0034 0.0141 0.00493 0.02861 0.00781 0.04297 1.4834-0.39331 3.6062 1.27 5.0215 0.39063 0 0-3.0932-1.4161-4.0547-2.0566-0.02774-0.01856-0.0564-0.03132-0.08399-0.04492l-0.57617-1.7266c0.46289-0.5627 0.8707-1.1822 1.2852-1.666 1.01-1.179 1.5685-0.67155 3.2461-1.0684 1.3861-1.881 2.4001-4.5495 2.7051-5.3438-1.4444-0.10815 0.27613-1.5168 1.627-11.67 0.99073-4.2562 1.4193-5.6297 0.58399-9.9297 0.98789-3.5112 0.17351-3.1694-0.48633-4.5371-1.277-2.6468 1.1259-1.6679-2.3789-7.1152-0.02808 7.4318-1.3048-0.78589-2.0078-2.2422-2.7395 0.16068-7.0673 1.6223-9.3359 2.5547-0.76508 0.44672-2.6683 2.6081-3.6465 2.9356-7.137 1.1677-3.119 2.801-5.666 3.4512-2.1722-2.4939-4.713-0.77548-7.3398 1.1836-2.1123-5.2065-1.3999-7.4681 2.4277-9.5801 1.7496-1.2887 2.7668-3.2374 3.5156-4.4824 0.74878-1.2451 1.2307-1.7857 1.4727-3.7422 0.031294-2.0144-0.68123-1.2949 0.050784-3.5039 0.732-2.209 2.4714-8.109 3.0527-10.084 1.3457-4.5631 4.3267-7.8574 4.8184-12.602 1.4195-4.9354 3.2886-9.8136 4.8809-14.648 0.75995-3.3477 4.3027-5.8105 4.3027-5.8105 0.35714-0.3345-1.3871-2.629-0.14062-2.4824 4.2258 0.49686 3.3104-0.40056 3.623-0.87891 0.44723-0.6842 1.3246 0.55726 1.1855-0.082031-0.07081-0.32567-0.59638-1.9624-0.71679-2.9766-0.15871-1.3374-0.06648-1.9625-0.01954-2.7617-0.40616-0.12324-0.71767-0.80294-0.82421-1.6719-0.16168-1.3188 0.94865-1.2985 0.97851-1.2891 0.15056-3.2898 2.8007-6.1744 5.9102-6.2188zm8.7539 12.209c0.24281 0.00189 0.60589 0.08677 1.1426 0.35742 2.943 1.0303-1.4791-0.23636-1.5938-0.15234-0.02388 0.017499 0.04649-0.20824 0.45117-0.20508zm-0.41406 2.6211c-0.55173 0.009498-1.5337 0.83373-1.6094 0.82617-0.37478-0.036812 2.5062 0.98057 1.8144-0.77539-0.05737-0.036624-0.12627-0.05215-0.20508-0.050782zm-28.645 44.557c-0.19641 0.03456-1.3853 3.2266-2.0508 4.0898-0.34901 0.45275 1.0513 0.6539 1.5527 0.30664 0.11588-0.45887 0.21543-1.9653 0.29102-1.4648 0.18765 1.2419 0.1401-0.99346 0.18164-1.4297 0.08311-0.87247 0.09085-1.5133 0.02539-1.502zm12.543 61.498c-0.91443-0.03663-2.1109 1.4547 0.6875 0.95508-0.01531-0.69379-0.32969-0.94072-0.6875-0.95508zm-7.4434 0.26758c-2.7403-0.02218-7.6117 1.4478-3.5644 1.2461 2.4717 0.19349 10.692-0.38109 5.123-0.80664-0.19062-0.30966-0.79129-0.43303-1.5586-0.43945z" fill-opacity=".98785" opacity=".98" style="mix-blend-mode:normal"/>
 </g>
</svg>
